<?xml version="1.0" standalone="no"?>
<!DOCTYPE svg PUBLIC "-//W3C//DTD SVG 20010904//EN"
 "http://www.w3.org/TR/2001/REC-SVG-20010904/DTD/svg10.dtd">
<svg version="1.0" xmlns="http://www.w3.org/2000/svg"
 width="16.000000pt" height="16.000000pt" viewBox="0 0 16.000000 16.000000"
 preserveAspectRatio="xMidYMid meet">

<g transform="translate(0.000000,16.000000) scale(0.100000,-0.100000)"
fill="#000000" stroke="none">
<path d="M4 147 c-3 -8 -4 -43 -2 -78 l3 -64 75 0 75 0 0 75 0 75 -73 3 c-55
2 -74 -1 -78 -11z m116 -24 c0 -5 -8 -17 -16 -28 -11 -14 -18 -16 -21 -7 -3 6
-14 12 -26 13 -17 0 -13 4 13 14 42 16 50 17 50 8z m-40 -53 c0 -5 10 -10 23
-11 16 0 11 -4 -17 -15 -46 -16 -52 -14 -34 15 14 22 28 28 28 11z"/>
</g>
</svg>
